<?xml version="1.0" standalone="no"?><!DOCTYPE svg PUBLIC "-//W3C//DTD SVG 1.1//EN" "http://www.w3.org/Graphics/SVG/1.1/DTD/svg11.dtd"><svg t="1608379784265" class="icon" viewBox="0 0 1024 1024" version="1.1" xmlns="http://www.w3.org/2000/svg" p-id="5436" xmlns:xlink="http://www.w3.org/1999/xlink" width="200" height="200"><defs><style type="text/css"></style></defs><path d="M511.48457936 12.58193975c-275.12417665 0-498.85355195 223.74164719-498.85355194 498.74310465 0 275.01372938 223.74164719 498.85355195 498.85355194 498.85355191 275.01372938 0 498.86582387-223.74164719 498.86582386-498.85355191-0.11044727-275.00145743-223.8520945-498.74310465-498.86582386-498.74310465z m0 944.77831249c-245.9660945 0-446.0229359-200.0568414-446.02293592-446.0229359C65.46164344 265.3712218 265.51848487 65.30210849 511.48457936 65.30210849s446.0229359 200.0568414 446.02293592 446.02293591c-0.09817535 245.9660945-200.16728871 446.03520782-446.02293592 446.03520784z" p-id="5437"></path><path d="M551.04924976 512l203.2966283-203.29662832c10.78701777-10.78701777 10.78701777-28.26223198 0-39.04924974s-28.26223198-10.78701777-39.04924974 0L512 472.95075024 308.70337168 269.65412194c-10.78701777-10.78701777-28.26223198-10.78701777-39.04924974 0s-10.78701777 28.26223198 0 39.04924974L472.95075024 512 269.65412194 715.29662832c-10.78701777 10.78701777-10.78701777 28.26223198 0 39.04924974a27.53205273 27.53205273 0 0 0 19.52462486 8.08719533c7.06862598 0 14.13725194-2.69982241 19.52462488-8.08719533L512 551.04924976l203.29662832 203.2966283c5.38737291 5.38737291 12.4559989 8.08719534 19.52462488 8.08719533s14.13725194-2.69982241 19.52462486-8.08719533c10.78701777-10.78701777 10.78701777-28.26223198 0-39.04924974L551.04924976 512z" p-id="5438"></path></svg>