<svg viewBox="0 0 1024 1024" xmlns="http://www.w3.org/2000/svg" xmlns:xlink="http://www.w3.org/1999/xlink" width="21" height="21"><path d="M511.08977778 2.38933333c-280.80355555 0-508.35911111 227.55555555-508.35911111 508.35911112s227.55555555 508.35911111 508.35911111 508.3591111S1019.44888889 791.552 1019.44888889 510.74844445 791.89333333 2.38933333 511.08977778 2.38933333zM337.80622222 510.74844445c0-12.74311111 5.00622222-24.68977778 13.99466667-33.67822223l251.10755556-251.10755555c18.54577778-18.54577778 48.81066667-18.54577778 67.47022222 0 18.54577778 18.54577778 18.54577778 48.81066667 0 67.47022222l-217.42933334 217.31555556L670.37866667 728.17777778c18.54577778 18.54577778 18.54577778 48.81066667 0 67.47022222-9.32977778 9.32977778-21.504 13.99466667-33.67822222 13.99466667-12.17422222 0-24.46222222-4.66488889-33.67822223-13.99466667L351.80088889 544.42666667c-8.98844445-8.98844445-13.99466667-20.93511111-13.99466667-33.67822222z" p-id="6348"></path></svg>