<?xml version="1.0" standalone="no"?><!DOCTYPE svg PUBLIC "-//W3C//DTD SVG 1.1//EN" "http://www.w3.org/Graphics/SVG/1.1/DTD/svg11.dtd"><svg t="1619686749895" class="icon" viewBox="0 0 1024 1024" version="1.1" xmlns="http://www.w3.org/2000/svg" p-id="1139" xmlns:xlink="http://www.w3.org/1999/xlink" width="200" height="200"><defs><style type="text/css"></style></defs><path d="M243.2 512c0-49.664-39.936-89.6-89.6-89.6s-89.6 39.936-89.6 89.6S103.936 601.6 153.6 601.6s89.6-39.936 89.6-89.6z m179.20000001 0c0 49.664 39.936 89.6 89.59999999 89.59999999s89.6-39.936 89.59999999-89.59999999-39.936-89.6-89.59999999-89.59999999-89.6 39.936-89.59999999 89.59999999z m358.39999999 0c0 49.664 39.936 89.6 89.6 89.6s89.6-39.936 89.6-89.6-39.936-89.6-89.6-89.6c-49.152 0-89.6 39.936-89.6 89.6z" p-id="1140"></path></svg>