<?xml version="1.0" standalone="no"?><!DOCTYPE svg PUBLIC "-//W3C//DTD SVG 1.1//EN" "http://www.w3.org/Graphics/SVG/1.1/DTD/svg11.dtd"><svg t="1603687220374" class="icon" viewBox="0 0 1024 1024" version="1.1" xmlns="http://www.w3.org/2000/svg" p-id="6173" xmlns:xlink="http://www.w3.org/1999/xlink" width="21" height="21"><path d="M915.60004627 791.51440217l-74.17087849-124.67020003V397.38297868c0-56.41721077-24.72362616-122.04002703-63.91320381-173.59141776-39.84712089-52.47195127-95.73829706-93.63415867-157.41585383-115.72761184-0.39452595-0.13150865-0.78905191-0.2630173-1.05206919-0.39452595-1.44659515-0.39452595-6.70694114-1.97262975-14.33444283-4.07676814v-9.07409683c0-48.78970907-42.74031119-89.95191647-94.02868462-89.95191648s-92.18756351 41.16220739-92.18756352 89.95191648v8.41655357c-7.23297575 1.97262975-11.70426983 3.28771626-12.23030442 3.55073356l-0.78905191 0.2630173c-62.59811731 21.56741857-119.40985403 62.59811731-160.04602682 115.59610319-39.84712089 51.94591668-65.4913076 118.09476754-65.49130761 175.16952156v269.46122345l-79.16820719 133.74429686c-9.99465738 16.57008987-9.86314873 37.08543924 0.13150866 53.65552914 9.99465738 16.43858122 34.3237576 33.0086711 54.44458102 33.00867109h196.07939686c11.70426983 72.46126604 80.74631098 121.90851838 160.17753548 121.90851838s146.63214454-49.44725234 158.33641438-121.90851838h195.94788822c31.16755 0 64.04471246-30.37849811 64.04471246-60.09945297 0-13.41388228-5.12883733-25.90720401-14.33444284-35.77035274M511.60547405 54.53992861c23.80306562 0 43.26634579 15.51802068 44.44992364 37.87449115-0.65754325-0.13150865-28.14285107-4.7343114-45.23897554-4.73431139-13.41388228 0-35.24431816 2.89319029-43.66087173 4.33978544 1.44659515-22.22496183 20.77836667-37.47996521 44.44992363-37.4799652m0 905.43705397c-52.60345992 0-100.07808251-25.77569537-111.25631773-72.5927747h220.54000573c-11.04672658 46.94858799-56.81173672 72.59277469-109.283688 72.5927747m91.92454622-805.35897146c106.1274804 38.26901709 188.84642114 144.26498884 188.84642113 242.76496756v269.46122346c0 3.9452595-1.70961244 9.20560549 0.39452594 12.62483039l82.0613975 137.29503041c2.23564705 3.6822422 5.260346 6.57543249 8.94258819 8.54806222-3.15620759-1.97262975-2.3671557-0.13150865-2.3671557 1.97262975 0 4.20827679-10.91521793 11.04672658-15.38651203 11.04672659H155.34854171c-2.89319029 0-11.04672658-4.86582005-12.3618131-7.10146709-0.65754325-1.05206919-1.05206919-2.49866435-1.05206919-3.81375084 0-1.44659515 0.39452595-2.76168165 1.05206919-3.81375084l86.00665699-144.00197155c2.1041384-3.41922489-0.13150865-8.67957089-0.13150864-12.62483039v-269.59273211c0-100.07808251 88.76833862-196.21090553 192.66017196-244.08005406 35.50733545-14.59746013 49.84177829-16.30707258 89.68889917-16.30707258 37.61147385 0 57.60078862 2.76168165 92.31907218 17.62215908z m0 0" p-id="6174" fill="#1fb5ab"></path></svg>