<?xml version="1.0" standalone="no"?><!DOCTYPE svg PUBLIC "-//W3C//DTD SVG 1.1//EN" "http://www.w3.org/Graphics/SVG/1.1/DTD/svg11.dtd"><svg t="1612356175047" class="icon" viewBox="0 0 1024 1024" version="1.1" xmlns="http://www.w3.org/2000/svg" p-id="6895" xmlns:xlink="http://www.w3.org/1999/xlink" width="16" height="16"><defs><style type="text/css"></style></defs><path d="M62.2 613.5c1-0.2 1.9-0.4 2.9-0.6-0.9 0.2-1.9 0.4-2.9 0.6zM38.7 619.6c0.8-0.2 1.5-0.5 2.3-0.7-0.8 0.2-1.5 0.5-2.3 0.7zM84.6 609.8c1.1-0.1 2.2-0.3 3.3-0.4-1.1 0.1-2.2 0.2-3.3 0.4z" fill="#F5F5F5" p-id="6896"></path><path d="M291.1 231.2m-90 0a90 90 0 1 0 180 0 90 90 0 1 0-180 0Z" fill="#F5F5F5" p-id="6897"></path><path d="M164.7 499.3m-100 0a100 100 0 1 0 200 0 100 100 0 1 0-200 0Z" fill="#F5F5F5" p-id="6898"></path><path d="M325 793.6m-110 0a110 110 0 1 0 220 0 110 110 0 1 0-220 0Z" fill="#F5F5F5" p-id="6899"></path><path d="M565.1 143.2m-75 0a75 75 0 1 0 150 0 75 75 0 1 0-150 0Z" fill="#F5F5F5" p-id="6900"></path><path d="M824 283.4m-60 0a60 60 0 1 0 120 0 60 60 0 1 0-120 0Z" fill="#F5F5F5" p-id="6901"></path><path d="M909.4 526m-50 0a50 50 0 1 0 100 0 50 50 0 1 0-100 0Z" fill="#F5F5F5" p-id="6902"></path><path d="M811.1 785.8m-40 0a40 40 0 1 0 80 0 40 40 0 1 0-80 0Z" fill="#F5F5F5" p-id="6903"></path><path d="M610.1 900.1m-30 0a30 30 0 1 0 60 0 30 30 0 1 0-60 0Z" fill="#F5F5F5" p-id="6904"></path></svg>