<?xml version="1.0" standalone="no"?><!DOCTYPE svg PUBLIC "-//W3C//DTD SVG 1.1//EN" "http://www.w3.org/Graphics/SVG/1.1/DTD/svg11.dtd"><svg t="1603973186962" class="icon" viewBox="0 0 1024 1024" version="1.1" xmlns="http://www.w3.org/2000/svg" p-id="6173" xmlns:xlink="http://www.w3.org/1999/xlink" width="21" height="21"><defs><style type="text/css"></style></defs><path d="M900.8227682 260.27723577c-19.01060414 0-34.33091454 15.43213748-34.33091454 34.33091454v617.50915329c0 18.89877706-15.32031039 34.33091454-34.33091453 34.33091454H191.83906087c-18.89877706 0-34.33091454-15.32031039-34.33091453-34.33091454V294.60815031c0-19.01060414-15.43213748-34.33091454-34.33091454-34.33091454-15.65579164 0-29.29869579 10.6235729-33.2126437 25.72022914l0.33548125 0.11182708c-0.6709625 4.58491041-0.78278959 12.97194165-0.78278959 29.63417704l-0.11182707 70.67471656c-0.11182709 58.48556451-0.22365416 136.31721438-0.22365418 214.26069137-0.22365416 155.77512687-0.33548125 311.55025372-0.33548125 311.55025373 0 56.80815825 46.18458535 102.99274361 102.99274361 102.9927436h640.43370534c56.80815825 0 102.99274361-46.18458535 102.9927436-102.9927436V294.60815031c-0.11182709-18.89877706-15.43213748-34.33091454-34.44274161-34.33091454z" p-id="6174"></path><path d="M353.31736898 845.02105369c6.48597083-6.48597083 10.06443749-15.09665623 10.06443748-24.26647705v-503.22187428c0-19.01060414-15.43213748-34.33091454-34.33091453-34.33091454-19.01060414 0-34.33091454 15.43213748-34.33091453 34.33091454v503.22187428c0 18.89877706 15.32031039 34.33091454 34.33091453 34.33091453 9.05799374-0.11182709 17.78050623-3.57846665 24.26647705-10.06443748zM969.59642435 100.14085266H710.94038096l-80.96280821-80.96280822c-6.93327915-6.82145208-16.10309998-10.6235729-25.60840204-10.39991873H419.96631054c-9.50530206 0.11182709-18.89877706 3.57846665-25.72022912 10.39991873l-80.96280823 80.96280822H54.51540273c-19.01060414 0-34.33091454 15.43213748-34.33091454 34.33091453s15.43213748 34.44274162 34.33091454 34.44274164h275.76558712c10.06443749 0 18.89877706-3.57846665 25.72022913-10.39991874l80.9628082-80.96280823H586.92414573l80.96280822 80.96280823c6.82145208 6.82145208 16.21492707 10.51174582 25.72022913 10.39991874H969.37277018c19.01060414 0 34.33091454-15.43213748 34.33091453-34.33091454 0.11182709-18.89877706-15.20848331-34.44274162-34.10726036-34.44274163zM536.26647705 845.02105369c6.48597083-6.48597083 10.06443749-15.09665623 10.06443749-24.26647705v-503.22187428c0-19.01060414-15.43213748-34.33091454-34.33091454-34.33091454-19.01060414 0-34.33091454 15.43213748-34.33091454 34.33091454v503.22187428c-0.11182709 18.89877706 15.32031039 34.33091454 34.33091454 34.33091453 9.16982082-0.11182709 17.78050623-3.57846665 24.26647705-10.06443748zM719.32741221 845.02105369c6.48597083-6.48597083 10.06443749-15.09665623 10.06443748-24.26647705v-503.22187428c0-19.01060414-15.43213748-34.33091454-34.33091454-34.33091454-19.01060414 0-34.33091454 15.43213748-34.33091453 34.33091454v503.22187428c-0.11182709 18.89877706 15.32031039 34.33091454 34.33091453 34.33091453 9.05799374-0.11182709 17.78050623-3.57846665 24.26647706-10.06443748z" p-id="6175"></path></svg>