<svg t="1614769846461" class="icon" viewBox="0 0 1024 1024" version="1.1" xmlns="http://www.w3.org/2000/svg" p-id="23261" width="200" height="200"><path d="M823.78145185 589.8002963c-15.77718518 37.25842963-37.62251852 70.87597037-62.13783703 102.91579259 25.60758518-31.19028148 46.36065185-65.536 62.13783703-102.91579259z" p-id="23262"></path><path d="M761.64361482 692.71608889c24.51531852-31.91845925 46.36065185-65.536 62.13783703-102.91579259 21.9666963-51.94334815 33.13208889-107.1634963 33.1320889-164.08272593 0-56.91922963-11.16539259-112.13937778-33.1320889-164.08272592-21.23851852-50.24426667-51.57925925-95.26992592-90.29404444-133.98471111-38.71478518-38.71478518-83.74044445-69.05552592-133.98471111-90.29404445C547.55934815 15.38939259 492.3392 4.224 435.41997037 4.224c-56.91922963 0-112.13937778 11.16539259-164.08272592 33.13208889-50.24426667 21.23851852-95.26992592 51.57925925-133.98471112 90.29404445-38.71478518 38.71478518-69.05552592 83.74044445-90.29404444 133.98471111-21.9666963 51.94334815-33.13208889 107.1634963-33.13208889 164.08272592 0 56.91922963 11.16539259 112.13937778 33.13208889 164.08272593 21.23851852 50.24426667 51.57925925 95.26992592 90.29404444 133.98471112 38.71478518 38.71478518 83.74044445 69.05552592 133.98471112 90.29404443 51.94334815 21.9666963 107.1634963 33.13208889 164.08272592 33.1320889 56.91922963 0 112.13937778-11.16539259 164.08272593-33.1320889 35.19525925-14.92764445 67.96325925-34.34571852 97.69718518-58.01149629 0 0.12136297 47.21019259-40.77795555 64.44373334-63.35146667z m-77.55093334-18.3258074c-66.38554075 66.38554075-154.73777778 103.03715555-248.67271111 103.03715555S253.1328 740.89718519 186.74725925 674.39028149c-66.38554075-66.38554075-103.03715555-154.73777778-103.03715555-248.67271112s36.53025185-182.28717037 103.03715555-248.67271111c66.38554075-66.38554075 154.73777778-103.03715555 248.67271112-103.03715556s182.28717037 36.53025185 248.67271111 103.03715556c66.38554075 66.38554075 103.03715555 154.73777778 103.03715555 248.67271111s-36.65161482 182.28717037-103.03715555 248.67271112z" p-id="23263"></path><path d="M747.68687408 692.71608889c-13.47128889 17.59762963-50.36562963 49.63745185-50.36562963 49.63745186l264.0858074 269.42577777 50.72971852-49.27336296-264.44989629-269.78986667z" p-id="23264"></path></svg>