<?xml version="1.0" standalone="no"?><!DOCTYPE svg PUBLIC "-//W3C//DTD SVG 1.1//EN" "http://www.w3.org/Graphics/SVG/1.1/DTD/svg11.dtd"><svg t="1608380065665" class="icon" viewBox="0 0 1024 1024" version="1.1" xmlns="http://www.w3.org/2000/svg" p-id="5688" xmlns:xlink="http://www.w3.org/1999/xlink" width="200" height="200"><defs><style type="text/css"></style></defs><path d="M511.0925862 1013.91098494c-68.73659591 0-135.20465729-13.27092693-197.70278327-39.58592735C252.93335801 948.91747099 198.94223649 912.50749197 152.43727887 866.2293878c-46.39153089-46.39153089-82.80150991-100.49607917-108.09566979-160.95252406C18.02660867 642.77873775 4.75568173 576.19724966 4.75568173 507.57408047c0-68.73659591 13.27092693-135.20465729 39.58592735-197.70278325 25.4075866-60.45644492 61.81756562-114.44756645 108.09566979-160.95252408 46.39153089-46.50495762 100.49607917-82.80150991 160.95252406-108.09566978 62.49812597-26.3150004 128.96618735-39.69935407 197.70278327-39.69935406 68.73659591 0 135.20465729 13.27092693 197.70278325 39.58592734 60.45644492 25.4075866 114.44756645 61.81756562 160.95252408 108.09566979 46.50495762 46.39153089 82.80150991 100.49607917 108.09566978 160.95252406 26.3150004 62.49812597 39.58592733 128.96618735 39.58592733 197.70278325 0 68.73659591-13.27092693 135.20465729-39.58592733 197.70278327-25.29415987 60.45644492-61.70413889 114.56099317-108.09566978 161.06595079-46.39153089 46.39153089-100.49607917 82.80150991-160.95252408 108.09566979-62.49812597 26.20157368-128.85276063 39.58592733-197.70278325 39.58592735z m0-956.0738727c-247.95082285 0-449.73696822 201.67271866-449.73696824 449.73696823 0 247.95082285 201.67271866 449.73696822 449.73696824 449.73696824 247.95082285 0 449.73696822-201.67271866 449.73696823-449.73696824 0-247.95082285-201.67271866-449.73696822-449.73696823-449.73696823z m0 0" p-id="5689"></path><path d="M787.28666377 458.91401507H235.23878878c-26.88213403 0-48.66006541 21.77793137-48.6600654 48.6600654s21.77793137 48.66006541 48.6600654 48.66006542h551.82102155c26.88213403 0 48.66006541-21.77793137 48.77349214-48.66006542 0-26.88213403-21.66450466-48.66006541-48.5466387-48.6600654z" p-id="5690"></path></svg>