<?xml version="1.0" standalone="no"?><!DOCTYPE svg PUBLIC "-//W3C//DTD SVG 1.1//EN" "http://www.w3.org/Graphics/SVG/1.1/DTD/svg11.dtd"><svg t="1608379911679" class="icon" viewBox="0 0 1024 1024" version="1.1" xmlns="http://www.w3.org/2000/svg" p-id="5562" xmlns:xlink="http://www.w3.org/1999/xlink" width="200" height="200"><defs><style type="text/css"></style></defs><path d="M511.54488889 3.52711111C231.31022222 3.52711111 3.41333333 231.424 3.41333333 511.54488889s227.89688889 508.13155555 508.13155556 508.13155556c280.12088889 0 508.13155555-227.89688889 508.13155556-508.13155556-0.11377778-280.12088889-228.01066667-508.01777778-508.13155556-508.01777778z m0 962.33244444c-250.53866667 0-454.31466667-203.776-454.31466667-454.31466666 0-250.53866667 203.776-454.31466667 454.31466667-454.31466667s454.31466667 203.776 454.31466666 454.31466667c-0.11377778 250.53866667-203.88977778 454.31466667-454.31466666 454.31466666z m0 0" p-id="5563"></path><path d="M784.15644445 302.30755555l-359.424 359.53777778-185.9128889-185.79911111c-10.80888889-10.80888889-28.44444445-10.80888889-39.3671111 0s-10.80888889 28.44444445 0 39.36711111L405.04888889 720.78222222c10.80888889 10.80888889 28.44444445 10.80888889 39.36711111 0l379.10755555-379.10755555c10.80888889-10.80888889 10.80888889-28.44444445 0-39.36711112-10.92266667-10.80888889-28.55822222-10.80888889-39.3671111 0z m0 0" p-id="5564"></path></svg>