<?xml version="1.0" standalone="no"?><!DOCTYPE svg PUBLIC "-//W3C//DTD SVG 1.1//EN" "http://www.w3.org/Graphics/SVG/1.1/DTD/svg11.dtd"><svg t="1606135219594" class="icon" viewBox="0 0 1024 1024" version="1.1" xmlns="http://www.w3.org/2000/svg" p-id="6440" xmlns:xlink="http://www.w3.org/1999/xlink" width="200" height="200"><defs><style type="text/css"></style></defs><path d="M948.12562438 575.8532645v290.75041625H75.87437562v-290.75041625H8.77812571v357.84666615h1006.44374858v-357.84666615z" p-id="6441"></path><path d="M316.74991278 366.51296479c2.68385 0 5.47952708-0.78278959 7.9397229-2.23654167L478.45187505 269.67071076v421.58810356h67.0962499V269.22340242l154.65685604 95.0530207c2.46019584 1.45375209 5.14404584 2.23654165 7.9397229 2.23654167 4.24942915 0 8.38703124-1.78923334 11.2945354-5.03221874 4.80856458-5.47952708 5.03221875-13.64290415 0.55913541-19.45791247L524.63646039 96.00325059c-3.01933125-3.80212084-7.60424166-5.81500834-12.30097914-5.70318124-4.69673749-0.11182709-9.2816479 1.90106041-12.30097914 5.70318124L304.89624195 342.02283358c-4.58491041 5.70318125-4.36125625 13.86655831 0.55913542 19.45791247 2.90750415 3.24298541 7.04510625 5.03221875 11.29453541 5.03221874z" p-id="6442"></path></svg>